<?xml version="1.0" encoding="utf-8"?>
<!-- Generator: Adobe Illustrator 24.2.1, SVG Export Plug-In . SVG Version: 6.00 Build 0)  -->
<svg version="1.1" id="Layer_1" xmlns="http://www.w3.org/2000/svg" xmlns:xlink="http://www.w3.org/1999/xlink" x="0px" y="0px"
	 width="830px" height="498px" viewBox="0 0 830 498" style="enable-background:new 0 0 830 498;" xml:space="preserve">
<rect style="fill:#00B140;" width="830" height="498"/>
<rect style="fill:#FFFFFF;" width="830" height="249"/>
<g>
	<g>
		<g>
			<path style="fill:#C8102E;stroke:#000000;stroke-width:1.8;" d="M251.990387,104.3995972
				c-26.9071655,4.2812881-95.0960083,11.0073395-121.7007751,6.4216919l5.1988068,13.1481705
				c44.0318146-4.2812271,86.2295685,10.7025375,125.3708954-4.8924179L251.990387,104.3995972z"/>
			<path style="fill:#C8102E;stroke:#000000;stroke-width:1.8;" d="M147.7205963,136.5060577
				c-16.8197937-5.1968384-44.6450043-35.4692383-49.230629-53.8162842
				c13.1477432,9.4776382,44.6429977,21.7098236,55.9571762,20.487442
				c-3.670105,2.7520828-12.8438721,10.0893173-19.8767395,11.0073395
				C137.9361267,120.9130707,144.3553619,129.4731903,147.7205963,136.5060577z"/>
		</g>
		<g>
			<path style="fill:#C8102E;stroke:#000000;stroke-width:1.8;" d="M201.8417358,127.3322525L201.8417358,127.3322525
				c4.894455,7.0329208,30.5792236,4.1281662,43.5733337-4.4319992l-3.5164642-5.9636612l-2.5984344,5.045639l-4.1276245-4.7388229
				l-1.0692139,7.4904099l-7.1860046-5.5036697l-1.2248535,6.5752869l-4.5856628-5.8104401l-1.6804047,7.1865387
				l-6.7285156-5.506134l-2.5984192,7.4933624c-2.0431519-2.5663071-3.1733246-5.740036-3.2120667-9.0201111
				C204.2890015,121.2174377,202.1485596,124.7338715,201.8417358,127.3322525z"/>
			<path style="fill:#C8102E;stroke:#000000;stroke-width:1.8;" d="M203.982132,104.5532608
				c0,1.8335724,2.1403961,7.1865311,6.1173248,8.7132797c0.1531677-2.2916489-2.6008759-7.6440582-0.9179993-9.9356613
				l3.5164337,3.3627777l1.0711823-6.4216919l4.7393188,3.5164413l0.4575348-7.4904099l4.8924866,3.3627777v-8.2552567
				C215.907486,92.1674194,206.1225281,101.801178,203.982132,104.5532608z"/>
		</g>
		<path style="fill:#C8102E;stroke:#000000;stroke-width:1.8;" d="M700.1867676,187.8769989
			c-2.0638428-4.8919373-8.4854736-10.8536224-14.142334-14.5237274c2.2076416-5.4290009,5.6519165-14.0200958,9.0917969-22.9155121
			c-8.5620728,1.8359985-26.3676147,3.1928711-36.7657471,1.9700012
			c19.569397-19.5694275,60.5447998-59.9336014,73.9993286-78.2806396
			c-4.8924561,25.0735779-1.2223511,81.3370819,8.5621338,100.9065094
			c-10.3981323-4.2807922-22.4147949-13.1452789-29.1408081-22.9302368
			c-3.9671631,14.0471039-8.8331299,29.3543854-11.5272827,35.6204376"/>
		<path style="fill:#C8102E;stroke:#000000;stroke-width:1.8;" d="M318.3457031,80.5488892
			c1.2223816,6.4221802,1.5267639,11.3141632,6.1148071,13.1482315c4.5856628,1.8359985,14.677002,5.5036697,21.0986328,16.5130005
			c-7.6440735-2.1404037-18.3470459-5.198822-19.2650757,2.1408768c-0.872345,6.9847717,2.1910095,6.7785873,7.3396912,7.9484406
			c6.726532,1.529213,13.1482239,9.7850037,13.4550781,20.794754c-5.5061646-3.363266-13.150238-6.1153564-18.0426941-6.1153564
			s-6.2685242,0.9160004-7.4909058,7.0309143c-2.018158,10.0868835,1.6828613,10.7029266,6.2685242,11.3141632
			c4.587616,0.611145,14.3725586,5.1988068,14.9837646,22.0166321c-5.1993103-4.587616-15.6263733-7.1433258-22.0171204-8.2552643
			c-3.5164795-0.6111908-4.127655,1.2223969-4.5851746,7.6440735c-0.4605103,6.4216919,0.3043823,8.5625153,6.4191895,10.3961487
			c6.1173096,1.8359985,13.150177,6.4216919,14.9837646,16.2066345c-5.8104858-2.7520752-14.9837646-1.8340607-17.7358093-0.6116791
			c-2.7516174,1.2228699-4.2425537,8.0569305,1.5679626,21.2046661c12.4740295-4.22789,25.3856506-7.033432,38.4893799-8.3633118
			c28.9012756-3.0421753,22.0171204-23.2369995,22.0171204-55.0391083c0-31.8015976,63.6007385-67.2708511,160.2284546-123.5343475
			c-23.239502,59.3199005,8.562561,53.8162842,26.2960205,47.0902252
			c17.7358398-6.728508,59.3223877-23.850708,91.7352295-37.9169998
			c-44.6449585,29.9655838-67.2733154,61.7676697-28.132019,75.8334198
			c-50.1486206,15.8998184-73.3881836,59.3199997-45.8673706,86.8407516
			c-18.7667847-6.6470032-44.7745972,5.8939514-55.6669922,23.359314
			c19.569458-1.8365173,57.5006714,2.9386139,80.7401123,9.6646729
			c22.1295776,6.4049988,58.6606445-1.0952454,62.1030273-20.8305969c0.1819458-0.9964752,0.2749634-2.0071716,0.277832-3.0201263
			c0-6.879715-1.6872559-12.0741577-4.2714844-15.8591309c-5.6833496-8.3293304-15.6430664-10.1320038-21.1083984-10.1320038
			c-7.9509277,0-16.206665,3.3627777-16.206665,9.1732635s4.892395,8.2558594,14.6774292,8.2558594
			c5.3499756,0,13.5983887,0.9297943,22.6376343-7.2969971c2.5841675,3.7850037,4.2714844,8.9794159,4.2714844,15.8591309
			c-0.0079956,0.9990997-0.1051025,1.9954987-0.2901001,2.977356c-8.4866943,4.831543-18.0782471,7.387146-27.843811,7.4187927
			c-19.5700073,0-37.9145508-7.9508972-37.9145508-29.3543854s22.0147095-33.6356659,39.7505493-33.6356659
			c24.461853,0,58.7087402,9.7850037,58.7087402,48.9237976c0,49.5379486-64.9508057,72.705246-103.480896,72.705246
			c6.460022,5.4197083,13.7348633,10.467865,21.5325928,13.5243225c27.2880859,10.7030029,51.371521,23.850708,59.9335938,44.033783
			c-10.3961792,0-27.520813-8.5620728-35.4716797-17.1246643c22.0170898,26.9096069-4.6863403,76.408783-1.8336182,92.9580688
			c3.0560303,17.7333984,23.850708,6.7260132,23.850708,20.4874268c0,12.2297058-12.2321777,10.089325-16.8178711,4.5856628
			c-4.5881348-5.5036621-19.2915649-10.1276245-26.9096069-4.5856628
			c-6.7260742,4.8924866-17.1217041,7.337738-21.7098389,2.4452515c-4.5856323-4.8924866-21.4035034-3.0588989-28.4363403,3.6695862
			c-7.0328979,6.7260742-16.8561401,7.2513428-19.8762207,2.1408997
			c-3.2337036-5.4727478-2.4069824-12.1271057,10.6740112-14.4305115
			c-5.8104858-6.1173096-23.517395,4.3387146-26.5738525-7.2798157c-2.1983032-8.348999,2.4452515-12.2321777,17.7333984-11.0097961
			c-1.5291748-3.973999-12.8409424-5.8080139-11.3141479-14.0657654
			c1.5292358-8.2557373,10.3671875-13.3662109,20.7947388-1.2223816
			c27.824707,32.4127808,40.6680298,14.3725586,50.1461792,0.3068237
			c-3.0564575-7.3401794,0.3068848-12.2321777,6.1173096-16.8178406
			c-3.0584106-5.1993103-1.2248535-12.5365601,0.9155884-17.4290771
			c-4.5856323-2.7520142-7.3372192-14.9842224-2.4447632-19.2650146c-3.9768677,0-10.0917969-4.5881042-10.0917969-12.5365906
			c-5.4294434,3.4873962-12.5545654,2.7242126-17.1221924-1.8340149
			c-5.8104248,3.3632813-21.0986328,3.9744263-27.8271484-3.3652344
			c-9.1737671,3.6695862-25.3804321,2.7515869-29.6587524-4.2812805
			c-8.0736084,2.1428528-22.9351196-4.8924866-25.9915771-12.5365601
			c-4.7402344-0.3669434-9.3300781-1.8318481-13.4064636-4.2788391
			c-12.2297058,9.1737671-28.7912903,26.9071655-12.280304,40.3617249
			c16.5134583,13.4545593,50.7598267,2.4447632,51.371521,36.0804443
			c-7.951355-6.7260742-22.6283569-4.8924866-27.520813-11.6185303
			c-16.5109863,24.461853-40.3617249,46.7834167-75.5265808,55.9566956
			c5.1968689,3.3632813,14.6774292,3.670105,18.3450623,3.3632813c7.624939-0.6352539,14.0657654,5.8104858,8.2577209,13.4545593
			c-5.8104858,7.6465149-17.7358398,1.2228699-24.7686768-5.1968384
			c-10.1207886-9.2430115-16.8178711-3.9764404-19.5700073-1.8359985
			c-2.7515869,2.1404114-6.4216919,3.3657227-11.3136292-1.5292053c-4.8925171-4.8924866-9.4806213-1.5267639-11.9253845,1.5292053
			c-3.9744568,4.9690552-13.1482239-6.4216919-27.8251648,7.0328674
			c-7.0569153,6.4697876-23.850708-1.8335876-17.1246338-11.3141479
			c-7.0328674,1.8365173-19.4712524-8.3800049-9.1732788-18.3446045
			c9.4801331-9.1732788,27.5203247,11.9253235,42.1977539,5.8080139
			c-3.2984619-4.1973267-10.1732788-11.9729919-24.4624023-13.7589417c-7.3396912-0.9179993-8.6386719-9.454071-5.198822-15.595459
			c4.2807922-7.6440735,17.4309998-2.4447632,26.2979431,9.4805908c6.9847717,9.394165,16.2066345,9.4781189,25.6842957,7.6440735
			c6.6593018-4.4393616,16.9714966-4.5881042,21.5591431-3.0584106c0-4.5856628,7.1839905-8.562561,12.6877136-8.562561
			c-0.3043823-6.1148682,1.5292358-11.6185303,10.3985901-13.1477356c0.7383423-0.1271362,1.5026855-0.2518921,2.2915955-0.3259888
			c-6.2438965,0.2666321-12.2689819-2.3268433-16.367157-7.0451355
			c-12.2488708,3.1379089-25.8187866-2.909668-27.8128662-14.4756775
			c-19.3612976-1.4167786-21.2861633-21.9282837-16.5159912-28.6062622c0.3866272-0.54953,0.8231201-1.0622559,1.3038635-1.5316467
			c-5.7623901,4.5493774-13.1261292,6.6539307-22.232666,3.341217c-8.0181274,11.232666-22.074585,17.8197937-37.3435669,13.3661804
			c-3.7478943,6.0345459-9.6235657,10.4432373-16.4653625,12.3544312
			c0.5704651,7.411377-0.9518738,15.8085022-10.2690125,25.6749878
			c2.4447632-13.4550476-14.6773987-17.7358398-11.0073547-39.7505188
			c-1.2248535,15.8998108-47.397049,42.1977539-54.7367554,77.0557556
			c6.7285156,3.0584106,14.0682068,5.1968994,18.6538696,4.2807922c11.5345764-2.3057861,15.2886353,9.7850037,11.925354,14.6774902
			s-12.8433838,7.3372498-16.8178406,3.0564575c-3.9744568-4.2788391-12.2321777,1.5292053-16.2066345-6.4197083
			c-3.973999-7.9508972-14.9837646-5.198822-19.5694275,0c-4.5856628,5.1968384-19.8762512-6.7285156-30.8835907,5.1968384
			c-4.1183014,4.460907-18.0402222,9.1737061-26.2979279,6.7285156
			c-8.2557526-2.4472351-13.1482239-11.0093079-10.3961487-15.5950012
			c-5.5036774-5.1993103-5.5802307-11.5660095-0.3043671-17.1246643
			c-1.9896851-7.7977295,4.4943542-23.2061462,15.4417877-17.1221924
			c6.879715,3.8208008,31.2645416,21.8634949,52.5168304,1.2223816
			c18.4265747-18.1192627,7.6921844-32.6381226,19.4928436-34.5531921
			c-1.4354401-7.3569336,3.0589142-16.5109863,7.9513855-18.3475342c-1.4240875-3.0706787-1.6806335-6.5550232-0.7216339-9.8011475
			c-2.785614-0.2275085-5.5235901-0.8573303-8.1286163-1.8699036c-9.1421356,2.7210388-18.6134186,4.1791382-28.15065,4.3338013
			c0,7.3372498-8.5601196,25.072998-15.899826,33.6356812c-2.4452667-67.2708435-63.6012421-73.9998474-71.8590012-127.5093079
			c-0.3043594,7.9489441-8.5620804,15.8998108-9.478096,22.625885c-0.9179993,6.7284546-4.8925095,11.925354-12.2322083,8.8693848
			c-7.3372421-3.0589905-9.1732712-15.9022827-1.8335724-17.7358398
			c7.3396988-1.8359985,5.9636612-14.0662994,10.5493088-15.5954437s5.3505096-6.4216919,3.5164719-12.5365448
			c-1.8359985-6.1148529,0.9160004-13.4545593,2.7519989-18.0402679c1.83358-4.5880585-0.9179993-12.232132-7.3396988-14.9837189
			c-5.8397141-2.3565063-8.663414-9.0008545-6.3069077-14.8405609c0.0608139-0.1507111,0.1248474-0.3001099,0.1920471-0.4480743
			c-6.7265472-4.8924713-4.8085327-15.4658356,4.2807922-17.4290009
			c11.3141708-2.4472198,11.0073471,16.2041473,17.4290009,18.3470001
			c-0.9155579-3.6696625,0.3068237-10.7030029,3.0588989-15.2905884
			c-3.6700897-7.9513855,0.9179993-14.3706055,8.2552643-14.3706055c12.8433685,0,8.5621185,21.4034729,5.5036926,28.1319427
			c4.2812653-6.1172638,11.0097656-13.1501465,16.2066193-8.2552032c5.199295,4.8895416,4.3504944,15.1084137-1.2228851,19.5670013
			c-4.587616,3.6696167-14.0657196,9.4801025-11.3136749,15.9017944c5.5036774,9.7850037,8.8664551,21.4034882,9.4801025,36.3877411
			c7.6440735,5.8105011,12.5365448,12.5365601,12.5365448,18.0402222
			c5.0436859,0.3068237,14.7059326,4.4918823,16.0529938,10.3981018c6.1148834-0.6136475,15.247879,0.6136475,17.887085,6.2685242
			c1.9896545-1.0716553,7.2940063-1.4285583,10.5060883-1.1242065c-0.0015259-4.7409363,1.5736847-9.3477478,4.4776459-13.0952148
			c-10.3956604-11.6210022-10.0912933-29.9655762,0.6116791-37.3052673
			c-3.0471191-7.618103-1.8340607-21.7103119,8.2552643-29.0500031c-0.217926-7.6465302,1.8359985-17.7334442,11.925354-24.1550751
			c-1.5292053-8.2577209,3.6700897-19.5694275,10.0917816-20.1811523
			c-1.5296936-7.9508362-0.3740845-17.764267,8.4923706-22.3523865c-2.1022186-2.3460846-3.1815033-5.4339447-2.9985199-8.5787659
			c-15.5547028,3.3627777-21.6332397,12.8816528-26.5930023,21.7579346c-0.6111908-3.670105-1.5292053-8.562088-3.670105-12.2321777
			c0,9.4781342-7.0328674,12.8433685-7.3372345,25.9911041c-5.199295-5.5037231-7.0328827-14.3725739-6.7285156-20.487442
			c0.2444763-4.894928-7.9484406-9.4781342-5.5036774-18.0402679c12.2321777,11.314209,37.0009003-13.4545135,58.4044037-5.5036163
			c-21.0991211-44.33815-36.3872681-22.9351959-47.0902252-15.2886276
			c-10.7029419,7.6445618-18.3470001-3.6696014-17.1222076-11.009346
			c-14.3725739-3.3632202-31.4972229-2.7519989-50.1486359,0.9179993
			c13.7589264-18.0426178,46.1722107-25.9915466,70.0229187-24.1574783
			c10.3956604-19.263092,22.9346619-16.5110016,35.1643829-14.6774406
			c7.9965515,1.2012215,17.3357544,1.2272987,26.6027832,0.7599411
			c5.8104858-16.2066383,39.7505493-17.8821373,43.1157532-30.7255096
			c3.0584106,2.4452591,1.2007751,11.6474991-1.8576355,19.5958824c8.8404541-2.6459999,16.4320068-5.4721985,18.9798279-11.0333099
			c1.5292053,5.1968498-0.9155579,19.2626114-4.2812805,23.5438919c3.4796753-0.9755135,7.0929565-1.3883476,10.7030029-1.2228699
			c-10.7030029,6.1148605-24.1549988,15.2886276-26.2954407,16.8178329
			c-2.1409302,1.529213-3.3657532,4.5856628,2.1404114,7.6440735c-6.1173401,1.2228699-23.239563,7.3401871-30.2724304,2.4477081"/>
		<g>
			<path style="fill:#C8102E;stroke:#000000;stroke-width:1.8;" d="M85.9534225,163.2619934
				c8.1021194-5.8104858,19.1810989-1.5149994,21.5566483,7.0328827c1.529213,5.5036774-7.7589417,9.5905457-8.5620804,4.4344482
				C97.8787689,167.8496399,93.4443207,163.5688324,85.9534225,163.2619934z"/>
			<path style="fill:#C8102E;stroke:#000000;stroke-width:1.8;" d="M117.7289963,145.4854279
				c9.4300003-3.2434845,18.8119431,4.0460815,18.6371689,12.9174957c-0.112915,5.7098541-10.1830902,6.9612122-9.4731903,1.7933197
				C127.8394318,153.2973938,124.819313,147.925766,117.7289963,145.4854279z"/>
			<path style="fill:#C8102E;stroke:#000000;stroke-width:1.8;" d="M152.7976532,161.1383057
				c8.9940948,4.3023987,10.5664978,16.0794983,4.2189941,22.2802734
				c-4.0868835,3.9911652-12.1408691-2.1811371-8.0088196-5.3691559
				C154.5212555,173.7995453,156.1369019,167.8496399,152.7976532,161.1383057z"/>
			<path style="fill:#C8102E;stroke:#000000;stroke-width:1.8;" d="M81.1763,284.7300415
				c7.8478012,6.1488037,19.0996246,2.3304443,21.836998-6.1098938c1.7619019-5.4339905-7.3470612-9.9116211-8.3657074-4.7938232
				C93.2862396,280.6530151,88.6740799,284.7423706,81.1763,284.7300415z"/>
			<path style="fill:#C8102E;stroke:#000000;stroke-width:1.8;" d="M136.4044647,408.3847351
				c3.2861938-9.4133911,14.8207855-12.2754211,21.6813812-6.6495056c4.4152832,3.6244812-0.8321228,12.3092957-4.4541168,8.5527954
				C148.7971649,405.2757568,142.7083282,404.3243408,136.4044647,408.3847351z"/>
			<path style="fill:#C8102E;stroke:#000000;stroke-width:1.8;" d="M126.0873489,433.702301
				c0.5463867-9.954834,13.8885574-16.2110596,22.0407028-12.7088623c5.2498932,2.2557678,2.6180573,12.0569153-1.9052429,9.4516296
				C140.1894226,426.9718323,131.0181274,428.0528259,126.0873489,433.702301z"/>
			<path style="fill:#C8102E;stroke:#000000;stroke-width:1.8;" d="M140.5870819,457.1936646
				c-3.4207153-9.3652344,3.6867828-18.8865662,12.5605927-18.8792114c5.7123108,0.0049133,7.1551056,10.048584,1.9730072,9.4373779
				C148.2075806,446.9364319,142.8929138,450.0601501,140.5870819,457.1936646z"/>
			<path style="fill:#C8102E;stroke:#000000;stroke-width:1.8;" d="M284.4031677,448.8328552
				c1.1816406-9.8998413-7.9243774-17.5346069-16.5586243-15.4924011
				c-5.5586548,1.3161926-4.6578064,11.4222107,0.2444763,9.6387024
				C274.6329346,440.5986938,280.5224609,442.4179993,284.4031677,448.8328552z"/>
			<path style="fill:#C8102E;stroke:#000000;stroke-width:1.8;" d="M339.5714417,451.9943542
				c-2.0471191-9.7585144,6.3500061-18.164917,15.1305542-16.8894958c5.6543884,0.8198242,5.6470032,10.9665833,0.6038208,9.6220093
				C348.5797729,442.9310608,342.8748169,445.2609253,339.5714417,451.9943542z"/>
			<path style="fill:#C8102E;stroke:#000000;stroke-width:1.8;" d="M477.1386414,449.609436
				c0.7643738-9.9429932-8.6533813-17.1894226-17.1943665-14.7849121
				c-5.4987793,1.5483704-4.1752625,11.6086731,0.6499939,9.6214905
				C467.0326538,441.7926025,472.9918823,443.3625488,477.1386414,449.609436z"/>
			<path style="fill:#C8102E;stroke:#000000;stroke-width:1.8;" d="M323.2381287,431.2884216
				c-1.4624329-9.8609924,8.3225098-18.348999,17.0117493-16.5537109c5.5950012,1.1576233,4.0820007,11.8797607-0.872345,10.2376404
				C332.7688293,422.7789001,326.9342651,424.7661438,323.2381287,431.2884216z"/>
			<path style="fill:#C8102E;stroke:#000000;stroke-width:1.8;" d="M336.0456848,402.9169006
				c0.5463867-9.9548035,11.8389893-16.3023682,19.9911194-12.797699c5.247406,2.2557678,1.6087341,12.4575195-2.9121094,9.8522034
				C347.0913086,396.4952087,340.9764404,397.2698669,336.0456848,402.9169006z"/>
			<path style="fill:#C8102E;stroke:#000000;stroke-width:1.8;" d="M546.5837402,457.1911926
				c-2.0471191-9.7584534,6.3495483-18.164917,15.1300659-16.8895569c5.6548462,0.8223267,5.647522,10.9690857,0.6043091,9.6239929
				C555.5916138,448.1303406,549.8867188,450.4602356,546.5837402,457.1911926z"/>
			<path style="fill:#C8102E;stroke:#000000;stroke-width:1.8;" d="M683.2207031,452.5216064
				c2.116333-9.7437134-6.2229004-18.210083-15.0127563-16.9949951c-5.6573486,0.7815552-5.7216187,10.9283142-0.6710815,9.6170654
				C674.2771606,443.3964539,679.9678955,445.7646179,683.2207031,452.5216064z"/>
			<path style="fill:#C8102E;stroke:#000000;stroke-width:1.8;" d="M528.984375,434.5751648
				c-1.4403687-9.8640137,7.4619141-17.7358398,16.1467285-15.9190063c5.59198,1.1698608,4.954834,11.2974854,0.006897,9.6411133
				C538.5341797,426.0895996,532.6952515,428.0621643,528.984375,434.5751648z"/>
			<path style="fill:#C8102E;stroke:#000000;stroke-width:1.8;" d="M534.0732422,407.6513062
				c0.1845703-9.9695435,10.2498779-16.285675,18.5222778-13.0785828c5.3259888,2.0643616,3.0515137,11.9519043-1.5631104,9.5140076
				C544.8768311,400.8314819,538.7958374,401.82901,534.0732422,407.6513062z"/>
		</g>
		<g>
			<path style="fill:none;stroke:#000000;stroke-width:1.22729;" d="M568.4713135,82.0785904
				c-23.239502,7.9508896-113.1386719,43.4201279-129.6496582,48.9238052s-25.0731201,6.7285156-34.8580933,29.3543854"/>
			<path style="fill:none;stroke:#000000;stroke-width:1.22729;" d="M525.0506592,55.7801704
				c-58.708252,37.9170036-106.4096985,70.9409485-119.8647461,102.1313019
				c-13.4545288,31.1885376-12.5365295,50.1467285-45.256134,55.6503448"/>
			<path style="fill:none;stroke:#000000;stroke-width:1.22729;" d="M265.75177,272.272583
				c14.6774292-17.1241608,45.2542114-37.9164581,74.6085815-39.138855
				c-5.7399597,9.3376007-10.6511841,19.1599274-14.6774292,29.3544006"/>
			<path style="fill:none;stroke:#000000;stroke-width:1.22729;" d="M325.0717163,274.1065979
				c7.3396912-9.7849121,25.6843262-30.5767212,37.3052673-39.1392822
				c-5.5036621,16.5134735-14.6769409,55.6523132-9.7844543,82.5594788
				c3.0559998-25.6842651,16.5105286-65.4348145,30.5767822-88.0631409
				c10.3981018,25.0735779,24.4619141,60.5447998,24.4619141,83.1731262
				c3.0584106-26.9091187-3.0564575-73.3881531-12.2297058-93.5687866
				c25.0730896,12.8409271,56.2634888,49.5350037,69.7180481,72.1633301
				c-9.1732788-31.8020935-40.363678-70.3297424-56.8771057-82.5619202
				c40.9753418,7.3397064,100.2977295,33.6376343,122.3119812,53.20755
				c-36.0804749-33.6356506-80.1142578-59.9335938-111.3022156-72.1657715
				c48.9237976-4.2788849,140.6590271,6.7285004,166.9549866,17.124649
				c-38.5281982-22.0171967-118.0312195-33.6356964-165.732666-30.5772705
				c50.1486816-21.4055023,139.4366455-45.8673553,211.6000366-56.2635117
				c-55.0411377,3.0563965-125.9820557,17.7358475-198.7565918,34.2468643
				C465.7307129,132.2247772,566.026062,90.6406708,589.87677,83.3010025"/>
			<path style="fill:none;stroke:#000000;stroke-width:1.22729;" d="M280.4291992,67.4011002
				c4.367218-14.4324188,22.1870117-18.2630005,36.6699829-22.6018219"/>
			<path style="fill:none;stroke:#000000;stroke-width:1.22729;" d="M304.5842896,78.1041183
				c-12.2297363-0.9179993-14.4039917-5.2640991-7.6445618-10.0917816
				c4.2812805-3.0584106,13.1482239-7.9508896,19.2655945-8.5620804c-1.5297241-0.3043709-5.8105164-1.5292091-7.951416-1.8335686
				c6.4216919-2.7520905,17.1246643-6.7285118,20.7922974-10.3986092"/>
			<path style="fill:none;stroke:#000000;stroke-width:1.22729;" d="M290.3648682,54.8646011
				c-4.6789246,0.42416-9.5905457,0.81493-14.5237732,1.0643082"/>
			<path style="fill:none;stroke:#000000;stroke-width:1.22729;" d="M258.7189331,126.7211075
				c-2.9860992,0.1564941-5.9550476,0.5501404-8.8787537,1.1772232"/>
			<path style="fill:none;stroke:#000000;stroke-width:1.22729;" d="M208.9845734,282.6162109
				c-0.1443939,8.7241821,2.8557892,17.2089539,8.4521027,23.9032288
				c4.8924866,5.5036621,34.8605042,7.3396912,36.0828857-3.0584106"/>
			<path style="fill:none;stroke:#000000;stroke-width:1.22729;" d="M213.4622345,269.5209961
				c10.3961487,11.6185303,44.0318146,4.5856018,44.0318146-3.9744568"/>
			<path style="fill:none;stroke:#000000;stroke-width:1.22729;" d="M214.0739136,232.2157288
				c3.6696167,9.1732788,42.8089905,17.4290009,43.4201355,6.7259979"/>
			<path style="fill:none;stroke:#000000;stroke-width:1.22729;" d="M222.3291626,203.1657257
				c0.3068237,10.7030029,35.9508362,17.6543427,37.0009155,9.7850037"/>
			<path style="fill:none;stroke:#000000;stroke-width:1.22729;" d="M234.2545319,179.0106354
				c1.5292053,8.2552643,25.0755463,16.2066345,28.4388275,12.5365448"/>
			<path style="fill:none;stroke:#000000;stroke-width:1.22729;" d="M244.3463135,158.829483
				c1.1143799,5.7987671,18.0402222,11.0073853,23.850708,8.8670044"/>
			<path style="fill:none;stroke:#000000;stroke-width:1.22729;" d="M252.8386841,136.4770966
				c3.468811,4.2115784,10.1997681,8.1310577,21.7799988,10.1202545"/>
			<path style="fill:none;stroke:#000000;stroke-width:1.22729;" d="M194.1996307,93.0858765
				c0.3043671-6.4216385,6.4192657-7.3376923,5.5036774-13.7593689"/>
			<path style="fill:none;stroke:#000000;stroke-width:1.22729;" d="M258.4120483,119.3838577
				c2.1404114,3.3627777,7.6440735,10.3961563,8.255249,15.5949936c3.0588989-2.4472198,5.5036621-7.6465683,6.4216919-10.0913391
				c2.9480591,2.596077,5.0734253,5.9969025,6.1148682,9.7845154c1.2253418-3.6696167,3.3657227-10.0912933,3.670105-14.0657578
				c4.4137573,1.0367966,8.5074768,3.1359024,11.925354,6.1148682c0.6111755-3.974472-1.2223816-9.1732788-4.2812805-11.3141708
				c3.3919067,0.1451035,6.7634583-0.592392,9.7850037-2.1403961c-2.1404114-3.0564423-5.5036621-7.0328674-8.8669434-8.8669434
				c3.0588989-0.9179993,7.337738-4.5851593,9.1737671-6.1149139c-2.7520752-1.2223892-7.6440735-3.9764328-10.7029419-5.5036163
				c1.8340149-1.8359985,3.3632507-5.5031815,4.28125-8.2577209"/>
			<path style="fill:none;stroke:#000000;stroke-width:1.22729;" d="M207.6517334,69.6952133
				c-1.9867401,0-2.9047546,4.5856476,0.7648468,7.4908981c2.6392059,2.090271,2.5984192,10.7030029-2.1403961,12.8433685"/>
			<path style="fill:none;stroke:#000000;stroke-width:1.22729;" d="M279.2038574,134.6719971
				c-13.4521179,31.188446-25.8374481,90.3572083-21.5566711,133.1661377"/>
			<path style="fill:none;stroke:#000000;stroke-width:1.22729;" d="M272.17099,326.3956909
				c0,6.4221802,10.0917664,7.6445618,9.7850037-7.6440735"/>
			<path style="fill:none;stroke:#000000;stroke-width:1.22729;" d="M281.0403748,326.3956909
				c1.2223816,5.5036621,11.6185303,6.726532,9.4776306-9.4801025"/>
			<path style="fill:none;stroke:#000000;stroke-width:1.22729;" d="M276.7590942,330.677002
				c0.6111755,11.925354,8.255249,11.3141479,8.8664551,0"/>
			<path style="fill:none;stroke:#000000;stroke-width:1.22729;" d="M290.8248901,322.419281
				c3.056427,7.3396912,11.6184998,3.6696167,9.1737366-12.5365601"/>
			<path style="fill:none;stroke:#000000;stroke-width:1.22729;" d="M300.303009,316.9155884
				c3.3652344,6.1173096,11.3141479,1.2248535,12.2321777-9.4781189"/>
			<path style="fill:none;stroke:#000000;stroke-width:1.22729;" d="M260.5524597,282.9755554
				c-5.2469177,5.745636-11.2660522,18.6445313-3.9764404,30.8835754
				c4.2832947,7.1839905,16.055481,11.1610107,17.2778625,6.8796692"/>
			<path style="fill:none;stroke:#000000;stroke-width:1.22729;" d="M256.5759888,313.8591614
				c-4.7393036,0.7648621-11.7098389,10.9234009-8.2557526,20.6386414
				c2.4477081,6.8796997,16.5134735,11.0097961,18.6538849,5.9641418"/>
			<path style="fill:none;stroke:#000000;stroke-width:1.22729;" d="M400.2939453,322.419281
				c15.288147,1.8359985,35.4712219-8.5601196,36.6940918-29.3543701"/>
			<path style="fill:none;stroke:#000000;stroke-width:1.22729;" d="M435.1515198,302.8497925
				c8.562561,5.5037231,26.2984314,7.3397522,33.6357117-6.7265015"/>
			<path style="fill:none;stroke:#000000;stroke-width:1.22729;" d="M443.1028748,307.1306152
				c-7.9513855,18.3470764-15.1541138,37.8398743,1.2223816,51.9827576
				c13.4545593,11.6210022,23.4481506-5.7024841,39.7529907,11.6210022
				c4.8919983,5.1968384-0.9185181,14.9813232-50.1491394,43.4201355"/>
			<path style="fill:none;stroke:#000000;stroke-width:1.22729;" d="M198.4784851,283.7404175
				c3.2120056,6.8792114,2.9052124,20.3342896-3.2096405,18.4977722"/>
			<path style="fill:none;stroke:#000000;stroke-width:1.22729;" d="M150.1658478,435.8647766
				c10.3961487-15.8998108,22.671524-3.0515442,31.4947815-5.8104858"/>
			<path style="fill:#FFFFFF;stroke:#000000;stroke-width:1.22729;" d="M231.3818207,72.2828979
				c-1.8359985,4.4344635,3.0165558,10.8001022,7.6139984,11.3248901
				c5.3505096,0.6111984,13.0105133-2.8501968,11.3301086-8.5070038"/>
			<path style="fill:none;stroke:#000000;stroke-width:1.22729;" d="M225.9992981,72.9048233
				c2.7515564-3.8232574,34.8600159,8.2557526,47.7013855-0.3068237"/>
			<path style="fill:none;stroke:#000000;stroke-width:1.22729;" d="M122.0338516,186.9615326
				c-1.2223816,2.7496338-0.7643585,10.8541718,3.9769211,15.2886353"/>
			<path style="fill:none;stroke:#000000;stroke-width:1.22729;" d="M348.9224243,433.4170837
				c2.4472351-3.0559998,11.5011902-6.1433411,18.1938782-4.4320068c6.5748596,1.6804199,18.3470154-0.6111755,25.9911499-3.670105"
				/>
			<g>
				<path style="fill:none;stroke:#000000;stroke-width:1.22729;" d="M279.2038574,134.6719971
					c-3.0559998,29.9660645,3.823761,75.9870605,21.4059448,96.4744568"/>
				<path style="fill:none;stroke:#000000;stroke-width:1.22729;" d="M269.9707336,161.2772369
					c0.5031433,26.6646576,7.0328369,58.3228607,19.9410095,75.7494812"/>
				<path style="fill:none;stroke:#000000;stroke-width:1.22729;" d="M262.9039917,190.3365326
					c2.5409851,20.1787109,8.2626343,40.4697723,17.3043518,53.6484375"/>
				<path style="fill:none;stroke:#000000;stroke-width:1.22729;" d="M258.4719849,220.963913
					c3.0539856,11.9754333,7.3539429,22.9660034,12.9371643,31.2311554"/>
				<path style="fill:none;stroke:#000000;stroke-width:1.22729;" d="M256.8970947,249.9442139
					c1.7112427,3.8413239,3.7489929,7.528717,6.0908203,11.0215759"/>
				<path style="fill:none;stroke:#000000;stroke-width:1.22729;" d="M278.5926819,153.3238983
					c-0.9155579,9.4801025-6.7260742,16.817337-11.925354,21.0986328"/>
				<path style="fill:none;stroke:#000000;stroke-width:1.22729;" d="M279.2038574,166.4740906
					c-0.9155579,9.4776459-7.3372498,18.0401764-15.7461548,22.1678467"/>
				<path style="fill:none;stroke:#000000;stroke-width:1.22729;" d="M281.0403748,179.6218262
					c-0.9179993,9.4781342-10.0917664,21.0986328-20.4879456,26.2954865"/>
				<path style="fill:none;stroke:#000000;stroke-width:1.22729;" d="M283.4851685,192.769577
					c-0.9155579,9.4805908-12.8409119,23.8506622-24.9822388,28.4628754"/>
				<path style="fill:none;stroke:#000000;stroke-width:1.22729;" d="M287.3084106,205.9173126
					c-3.516449,12.8438568-17.5821838,27.8276215-29.9655762,31.1909027"/>
				<path style="fill:none;stroke:#000000;stroke-width:1.22729;" d="M292.8121033,219.0679932
					c-0.9179993,9.4776459-19.7230835,28.7427063-35.9291992,34.2463684"/>
			</g>
			<path style="fill:none;stroke:#000000;stroke-width:1.22729;" d="M180.5914154,277.4718933
				c1.9872284,8.7132874-4.587616,16.6646729-7.9508972,14.5237427"/>
			<path style="fill:none;stroke:#000000;stroke-width:1.22729;" d="M215.6031189,307.7442322
				c-31.8016052-6.7284546-55.4466248-17.9370728-68.4937134-44.0337219
				c-3.3652344-6.7260132,5.5036774-8.5620728,4.8924866-14.677002"/>
			<path style="fill:none;stroke:#000000;stroke-width:1.22729;" d="M142.5217743,212.645813
				c-5.5036774-9.7844696-6.7284851-20.487442-3.6700745-27.2135468"/>
			<path style="fill:none;stroke:#000000;stroke-width:1.22729;" d="M164.5384369,267.0737915
				c0,5.5056458-6.5748596,12.5365601-8.8689117,9.9381409"/>
			<path style="fill:none;stroke:#000000;stroke-width:1.22729;" d="M217.4366913,306.5194397
				c-3.6651764,8.9027405,3.423172,25.9027405,18.9773865,31.7490845"/>
			<path style="fill:none;stroke:#000000;stroke-width:1.22729;" d="M248.320282,334.4978027
				c-1.8560944,1.4034119-3.186554,3.3900146-3.7776031,5.640625"/>
			<path style="fill:none;stroke:#000000;stroke-width:1.22729;" d="M260.859314,352.6916809
				c-2.7540588,4.5881042-13.4546051,1.2248535-15.5950012-2.7520752"/>
			<path style="fill:none;stroke:#000000;stroke-width:1.22729;" d="M217.8200989,402.8403015
				c-12.9656067,12.7476501-26.1732483,13.4668274-41.967514,15.2886353
				c-15.9017792,1.8359985-20.3342438-5.3505249-25.9911041,0.6111755"/>
			<path style="fill:none;stroke:#000000;stroke-width:1.22729;" d="M321.4016113,307.1306152
				c1.8365173,8.5626221,1.2228699,17.1246948-6.1148682,29.9680786c-4.0510559,7.085907-0.2130737,14.7299194,0.4845276,23.8605347
				"/>
			<path style="fill:none;stroke:#000000;stroke-width:1.22729;" d="M391.8128662,331.8973694
				c7.0093079-5.5326538,11.6352234-14.6582336,13.9848022-21.7077942"/>
			<path style="fill:none;stroke:#000000;stroke-width:1.22729;" d="M369.5802002,335.2385864
				c7.9893188-11.0686035,9.2174072-25.6429443,3.1929321-37.892395"/>
			<path style="fill:none;stroke:#000000;stroke-width:1.22729;" d="M332.2366638,348.6047668
				c4.700531-7.2582092,7.5125122-17.5969238,7.5125122-31.0780029"/>
			<path style="fill:none;stroke:#000000;stroke-width:1.22729;" d="M237.3129425,368.2871094
				c1.2228851,6.2680054,10.7030029,9.02005,12.2321777,5.9636536"/>
			<path style="fill:none;stroke:#000000;stroke-width:1.22729;" d="M313.1463623,294.5940857
				c0,6.1148682-6.1148682,10.7030029-10.7030029,7.0328674c0.6111755,8.8670044-5.8080139,11.6210022-10.3956604,7.3401794
				c0.9179993,12.5365601-9.4781189,13.7589417-16.2066345,3.973999
				c-7.6440735,37.6101379-33.3288574,65.7416382-35.1648865,84.0886841
				c-0.6111908,4.2812805-16.9710083,3.0588989-12.6902008-9.4776611"/>
			<path style="fill:none;stroke:#000000;stroke-width:1.22729;" d="M424.1446533,329.1477661
				c-9.1737671-1.145813-25.308197-3.9646606-32.3317871,2.7495728"/>
			<path style="fill:none;stroke:#000000;stroke-width:1.22729;" d="M427.81427,357.8909912
				c-8.4781494,3.362793-15.3288879,4.5449219-20.7893066,4.1443176"/>
			<path style="fill:none;stroke:#000000;stroke-width:1.22729;" d="M451.2049866,383.5561218
				c8.449646-0.3308716,17.1650085-5.9494629,20.6411133-19.8546448"/>
			<path style="fill:none;stroke:#000000;stroke-width:1.22729;" d="M434.8377991,376.5109863
				c7.1990356-1.8531189,13.231781-6.7539673,16.5203552-13.4207153"/>
			<path style="fill:none;stroke:#000000;stroke-width:1.22729;" d="M476.4312439,386.6341553
				c-5.3234863-1.6828613-16.5610657-3.9028015-25.2262573-3.078064"/>
			<path style="fill:none;stroke:#000000;stroke-width:1.22729;" d="M446.1612854,407.1216125
				c3.3632813-1.8359985-2.1404114-10.0917664-7.6465149-10.0917664"/>
			<path style="fill:none;stroke:#000000;stroke-width:1.22729;" d="M381.9468994,420.8805237
				c7.8140259-3.3539734,15.2885437-7.4492798,22.3209839-12.2297363"/>
			<path style="fill:none;stroke:#000000;stroke-width:1.22729;" d="M425.8270569,405.5923767
				c4.1516418,1.385376,10.2430115,6.7260742,8.1020508,8.5620728"/>
			<path style="fill:none;stroke:#000000;stroke-width:1.22729;" d="M465.1195374,291.2313232
				c4.8924866,8.5620728,14.0637817,14.0657349,26.29599,8.5620728c0.8605652,2.5792847,3.7683105,5.2257996,7.3878174,7.3396912"/>
			<path style="fill:none;stroke:#000000;stroke-width:1.22729;" d="M532.6952515,289.0904236
				c6.1173096,4.8924866-4.5856323,22.9326782-20.4854736,22.3215027"/>
			<path style="fill:none;stroke:#000000;stroke-width:1.22729;" d="M618.3131104,399.4775391
				c2.1212769,5.0888367,10.0917969,4.5851746,13.1502075,0c3.4923706-5.2399902,9.7849731-21.4059448,6.1148682-53.8187256
				c-3.6696167-32.4108276-34.8579712-36.6916199-70.940918-44.0318298
				c-36.0828247-7.3372498-45.2561646-18.9582214-52.5933838-40.3612366"/>
			<path style="fill:none;stroke:#000000;stroke-width:1.22729;" d="M624.4304199,382.6596985
				c3.0564575,5.1968384,11.6185303,3.9744568,12.8409424-1.2248535"/>
			<path style="fill:none;stroke:#000000;stroke-width:1.22729;" d="M625.3460083,365.2306213
				c4.5881348,2.7516479,13.4545898,1.8336182,13.1477661-4.28125"/>
			<path style="fill:none;stroke:#000000;stroke-width:1.22729;" d="M622.9012451,345.9656067
				c3.973999,0,14.6769409,0.6112061,14.0657349-4.2812805"/>
			<path style="fill:none;stroke:#000000;stroke-width:1.22729;" d="M612.8094482,333.4289856
				c3.3632813-2.4476624,12.8433838-12.8433228,7.644043-15.9022217"/>
			<path style="fill:none;stroke:#000000;stroke-width:1.22729;" d="M595.6872559,331.5950012
				c5.8079834-3.3652344,12.2297363-20.7942505,5.1968384-22.3234558"/>
			<path style="fill:none;stroke:#000000;stroke-width:1.22729;" d="M567.8601074,328.2297668
				c9.1732788-3.670105,17.7359009-22.6283264,11.6204834-23.850708"/>
			<path style="fill:none;stroke:#000000;stroke-width:1.22729;" d="M538.201355,323.9484863
				c14.9813232-3.9744568,19.569458-24.1550903,13.7589111-25.9911194"/>
			<path style="fill:none;stroke:#000000;stroke-width:1.22729;" d="M558.6863403,414.4588318
				c15.6047974,1.2489014,24.1575317,9.4805603,30.2723999,12.8433228"/>
			<path style="fill:none;stroke:#000000;stroke-width:1.22729;" d="M555.0187378,248.4218292
				c14.21698-1.3755035,28.1943359,20.3681488,47.5723267,36.6224213"/>
			<path style="fill:none;stroke:#000000;stroke-width:1.22729;" d="M711.7911377,152.1034851
				c2.6749878-9.4732361,4.9165039-18.3730621,5.9017334-23.5463409"/>
			<path style="fill:none;stroke:#000000;stroke-width:1.22729;" d="M567.5267944,432.7484436
				c3.6467896-0.6052551,7.3392944-0.8923645,11.0358276-0.8581238"/>
			<path style="fill:none;stroke:#000000;stroke-width:1.22729;" d="M706.0719604,121.2174377
				c-2.0662842,5.8536911-6.5081177,17.7672577-10.93573,29.2203674"/>
			<path style="fill:none;stroke:#000000;stroke-width:1.22729;" d="M321.4403992,221.9251251
				c-26.9695129,9.2980042-54.8977661,27.1511383-72.8132935,60.132431c9.7850037,2.4452515,28.7431946,0,37.3052673-3.0584106
				c0.6117249,7.9508972,0.6117249,18.3469849,0.6117249,25.0755615
				c8.5620422-6.7285156,18.9581909-16.5134583,26.9090881-18.958252
				c-0.6136475,7.9484253-0.6136475,22.0141602-0.6136475,27.5203247
				c11.6210022-12.2321777,33.6357117-13.4545593,39.7529907,4.8900146
				c4.8919983-26.9071655,45.2537231-28.1295471,55.0386658-4.8900146
				c11.0097961-21.4054565,39.1412964-29.356842,57.4883423-21.4054565
				c7.9489441-22.6283264,42.8070068-34.8580627,65.434845-29.3544006
				c-7.5002441-10.3672333-6.1600952-21.8301392-0.0142822-31.6818085"/>
		</g>
	</g>
	<path style="stroke:#000000;stroke-width:1.8;stroke-linejoin:round;" d="M234.4799957,73.1480026L246.5,75.3730011
		C246.5,75.3730011,238.0399933,86.7220001,234.4799957,73.1480026z"/>
</g>
</svg>
